<?xml version="1.0" encoding="UTF-8" standalone="no"?>
<svg
   width="1000"
   height="1000"
   viewBox="0 0 1000 1000"
   version="1.1"
   id="svg14"
   xmlns="http://www.w3.org/2000/svg"
   xmlns:svg="http://www.w3.org/2000/svg">
  <defs
     id="defs14" />
  <rect
     width="1000"
     height="1000"
     fill="#FFFFFF"
     id="rect1" />
  <g
     id="primary"
     transform="translate(355,80) scale(1.25)">
    <defs
       id="defs1">
      <clipPath
         id="clip_field_primary">
        <path
           d="M46 55 Q120 33 194 55 L194 118 Q194 179 120 234 Q46 179 46 118 Z"
           id="path1" />
      </clipPath>
    </defs>
    <path
       d="M20 30 Q120 0 220 30 L220 120 Q220 205 120 270 Q20 205 20 120 Z"
       fill="#000000"
       id="path2" />
    <path
       d="M32 42 Q120 16 208 42 L208 118 Q208 190 120 252 Q32 190 32 118 Z"
       fill="#FFFFFF"
       id="path3" />
    <path
       d="M46 55 Q120 33 194 55 L194 118 Q194 179 120 234 Q46 179 46 118 Z"
       fill="#C9A646"
       id="path4" />
    <!-- lower black foundation -->
    <path
       d="M46 176 Q120 194 194 176 L194 118 Q194 179 120 234 Q46 179 46 118 Z"
       fill="#000000"
       id="path5" />
    <g
       fill="none"
       stroke="#C9A646"
       stroke-width="5"
       stroke-linecap="round"
       id="g6">
      <path
         d="M84 202 L112 180"
         id="path6" />
    </g>
    <!-- handle -->
    <path
       d="M106 106 L138 106 L142 218 L120 236 L98 218 Z"
       fill="#FFFFFF"
       id="path7" />
    <path
       d="M114 114 L130 114 L133 210 L120 222 L107 210 Z"
       fill="#000000"
       id="path8" />
    <path
       d="M110 182 L126 174"
       fill="none"
       stroke="#C9A646"
       stroke-width="6"
       stroke-linecap="round"
       id="path9" />
    <!-- head -->
    <path
       d="M84 62 Q62 72 56 96 Q52 118 66 136 L92 140 Q104 120 126 114 L178 110 L178 70 Z"
       fill="#FFFFFF"
       id="path10" />
    <path
       d="M90 72 Q72 80 68 96 Q66 112 76 126 L94 130 Q104 116 126 110 L168 106 L168 78 Z"
       fill="#000000"
       id="path11" />
    <path
       d="M148 82 L160 94"
       fill="none"
       stroke="#C9A646"
       stroke-width="6"
       stroke-linecap="round"
       id="path12" />
    <path
       d="M123 73 L142 73 L133 87 Z"
       fill="#C00000"
       id="path13" />
  </g>
  <path
     d="m 312.19629,532.01172 h 41.28418 V 640 h 37.48047 V 532.01172 h 41.28418 V 501.76758 H 312.19629 Z M 418.17383,640 h 41.93359 l 7.60742,-26.5332 h 42.49024 L 518.18359,640 h 42.49024 L 514.19434,501.76758 H 462.9834 Z m 57.51953,-54.55078 c 4.82422,-16.88477 8.7207,-34.88281 12.52441,-52.97363 4.17481,18.09082 8.62793,36.08886 13.6377,52.97363 z m 148.18945,56.40625 c 36.18164,0 62.15821,-22.08008 62.15821,-59.93164 V 562.8125 h -61.23047 v 26.71875 h 25.04882 c -0.37109,12.06055 -8.90625,19.66797 -25.60546,19.66797 -19.48243,0 -29.50196,-14.28711 -29.50196,-38.59375 0,-23.93555 10.8545,-38.03711 29.6875,-38.03711 11.78223,0 19.76075,5.38086 22.08008,14.84375 h 37.85156 c -2.87597,-27.73926 -28.11035,-47.5 -60.67382,-47.5 -37.29493,0 -67.53907,25.69824 -67.53907,71.25 0,43.69629 27.36817,70.69336 67.72461,70.69336 z"
     id="text13"
     style="font-weight:900;font-size:190px;font-family:Inter;letter-spacing:-6;text-anchor:middle"
     aria-label="TAG" />
  <path
     d="m 180.17285,682.76367 h 8.08594 V 705 h 4.69336 v -22.23633 h 8.06836 v -3.95508 h -20.84766 z m 39.0332,22.58789 c 6.85547,0 12.00586,-4.97461 12.00586,-13.42969 0,-8.47265 -5.15039,-13.46484 -12.00586,-13.46484 -6.87304,0 -12.04101,4.99219 -12.04101,13.46484 0,8.4375 5.16797,13.42969 12.04101,13.42969 z m 0,-4.20117 c -4.28906,0 -7.33007,-3.26953 -7.33007,-9.22852 0,-5.99414 3.04101,-9.26367 7.33007,-9.26367 4.25391,0 7.27735,3.25196 7.27735,9.26367 0,5.97657 -3.02344,9.22852 -7.27735,9.22852 z M 239.65918,705 h 4.60547 v -13.21875 c 0,-1.98633 -0.10547,-5.60742 -0.17578,-8.57813 0.96679,3.375 2.02148,6.87305 2.63672,8.57813 L 251.62988,705 h 3.99024 l 4.83398,-13.21875 c 0.61524,-1.75781 1.72266,-5.36133 2.61914,-8.71875 -0.0527,3.11133 -0.1582,6.76758 -0.1582,8.71875 V 705 h 4.67578 v -26.19141 h -7.08398 l -4.92188,13.51758 c -0.50976,1.56445 -1.31836,4.79883 -1.93359,7.38281 -0.59766,-2.61914 -1.42383,-5.83593 -1.95117,-7.38281 l -4.97461,-13.51758 h -7.06641 z m 35.44727,0 h 5.13281 l 2.14453,-6.48633 h 9.79101 L 294.40723,705 h 5.15039 l -9.35157,-26.19141 h -5.95898 z m 8.52539,-10.26563 1.10742,-3.33984 c 0.7207,-2.33789 1.51172,-5.27344 2.44336,-8.92969 0.96679,3.6211 1.79297,6.52149 2.5664,8.92969 l 1.14258,3.33984 z M 307.05566,705 h 4.69336 v -11.4082 h 12.18164 V 705 h 4.69336 v -26.19141 h -4.69336 v 10.82813 h -12.18164 v -10.82813 h -4.69336 z m 29.08399,0 h 5.13281 l 2.14453,-6.48633 h 9.79102 L 355.44043,705 h 5.15039 l -9.35156,-26.19141 h -5.95899 z m 8.52539,-10.26563 1.10742,-3.33984 c 0.7207,-2.33789 1.51172,-5.27344 2.44336,-8.92969 0.9668,3.6211 1.79297,6.52149 2.56641,8.92969 l 1.14257,3.33984 z M 370.98926,705 h 5.3789 l 3.81446,-14.4668 c 0.50976,-1.95117 0.84375,-3.99023 1.19531,-6.15234 0.38672,2.25 0.75586,4.32422 1.23047,6.15234 L 386.42285,705 h 5.37891 l 7.08398,-26.19141 h -5.0625 l -3.39258,13.93946 c -0.54492,2.35547 -1.01953,5.02734 -1.45898,7.59375 -0.47461,-2.56641 -0.9668,-5.23828 -1.54688,-7.59375 l -3.5332,-13.93946 h -4.97461 l -3.55078,13.93946 c -0.59766,2.37304 -1.07226,5.08007 -1.54687,7.68164 -0.43946,-2.60157 -0.89649,-5.3086 -1.44141,-7.68164 l -3.41016,-13.93946 h -5.04492 z m 35.41211,0 h 4.69336 v -7.85742 l 3.56836,-3.88477 L 422.6084,705 h 5.53711 l -10.23047,-14.85352 10.05469,-11.33789 h -5.83594 l -6.87305,7.83985 c -1.72265,2.0039 -3.00586,3.65625 -4.23633,5.53711 l 0.0703,-5.60743 v -7.76953 h -4.69336 z m 40.625,0 h 5.13281 l 2.14453,-6.48633 h 9.79102 L 466.32715,705 h 5.15039 l -9.35156,-26.19141 h -5.95899 z m 8.52539,-10.26563 1.10742,-3.33984 c 0.7207,-2.33789 1.51172,-5.27344 2.44336,-8.92969 0.9668,3.6211 1.79297,6.52149 2.56641,8.92969 l 1.14257,3.33984 z M 487.83496,705 c 7.98047,0 12.67383,-4.93945 12.67383,-13.13086 0,-8.13867 -4.69336,-13.06055 -12.49805,-13.06055 h -9.03515 V 705 Z m -4.16601,-4.06055 v -18.07031 h 4.06054 c 5.36133,0 8.15625,3.00586 8.15625,9 0,6.04688 -2.79492,9.07031 -8.27929,9.07031 z M 515.17871,705 h 5.94141 l 9.17578,-26.19141 h -5.13281 l -4.5,13.60547 c -0.73829,2.33789 -1.5293,5.20313 -2.47852,8.8418 -0.9668,-3.60352 -1.81055,-6.52149 -2.54883,-8.8418 l -4.64062,-13.60547 h -5.15039 z m 27.30859,-26.19141 h -4.69335 V 705 h 4.69335 z m 18.4668,26.59571 c 6.25781,0 9.91406,-3.14649 9.91406,-7.75196 0,-4.57031 -3.81445,-6.59179 -7.69921,-7.52343 l -2.44336,-0.63282 c -2.12696,-0.52734 -4.46485,-1.40625 -4.46485,-3.60351 0,-1.98633 1.79297,-3.44531 4.7461,-3.44531 2.83007,0 4.72851,1.30078 4.95703,3.5332 h 4.55273 c -0.12305,-4.37695 -3.84961,-7.52344 -9.43945,-7.52344 -5.48438,0 -9.5625,3.09375 -9.5625,7.7168 0,3.6914 2.58398,5.90625 6.96094,7.03125 l 2.9707,0.77344 c 2.83008,0.73828 4.72851,1.5996 4.72851,3.63867 0,2.25 -2.1621,3.77929 -5.25585,3.77929 -2.95313,0 -5.29102,-1.33593 -5.50196,-4.0957 h -4.62304 c 0.21093,5.16797 4.06054,8.10352 10.16015,8.10352 z m 29.43555,-0.0527 c 6.85547,0 12.00586,-4.97461 12.00586,-13.42969 0,-8.47265 -5.15039,-13.46484 -12.00586,-13.46484 -6.87305,0 -12.04102,4.99219 -12.04102,13.46484 0,8.4375 5.16797,13.42969 12.04102,13.42969 z m 0,-4.20117 c -4.28906,0 -7.33008,-3.26953 -7.33008,-9.22852 0,-5.99414 3.04102,-9.26367 7.33008,-9.26367 4.2539,0 7.27734,3.25196 7.27734,9.26367 0,5.97657 -3.02344,9.22852 -7.27734,9.22852 z M 610.84277,705 h 4.69336 v -9.61523 h 4.88672 L 625.57324,705 h 5.25586 l -5.67773,-10.40625 c 3.09375,-1.23047 4.71093,-3.84961 4.71093,-7.40039 0,-4.99219 -3.19921,-8.38477 -9.22851,-8.38477 h -9.79102 z m 4.69336,-13.5 v -8.75391 h 4.37696 c 3.56836,0 5.15039,1.65235 5.15039,4.44727 0,2.77734 -1.58203,4.30664 -5.11524,4.30664 z m 29.7168,13.5 h 4.69336 v -10.14258 l 9.5625,-16.04883 h -5.44922 l -4.58789,8.26172 c -0.68555,1.24805 -1.26563,2.37305 -1.8457,3.86719 -0.58008,-1.45898 -1.16016,-2.58398 -1.88086,-3.86719 l -4.67578,-8.26172 h -5.48438 l 9.66797,16.04883 z m 46.14453,0.35156 c 6.46875,0 11.10938,-4.16601 11.10938,-10.89844 v -3.14648 h -10.59961 v 3.69141 h 6.04687 c -0.0879,3.76172 -2.60156,6.15234 -6.53906,6.15234 -4.41211,0 -7.43555,-3.32227 -7.43555,-9.24609 0,-5.94141 3.09375,-9.2461 7.33008,-9.2461 3.18164,0 5.32617,1.72266 6.16992,4.51758 h 4.79883 c -0.80859,-5.15039 -5.25586,-8.71875 -11.02148,-8.71875 -6.85547,0 -11.98829,5.04492 -11.98829,13.48242 0,8.2793 4.9043,13.41211 12.12891,13.41211 z M 711.05957,705 h 4.69336 v -9.61523 h 4.88672 L 725.79004,705 h 5.25586 l -5.67774,-10.40625 c 3.09375,-1.23047 4.71094,-3.84961 4.71094,-7.40039 0,-4.99219 -3.19922,-8.38477 -9.22851,-8.38477 h -9.79102 z m 4.69336,-13.5 v -8.75391 h 4.37695 c 3.56836,0 5.15039,1.65235 5.15039,4.44727 0,2.77734 -1.58203,4.30664 -5.11523,4.30664 z m 34.00586,13.85156 c 6.85547,0 12.00586,-4.97461 12.00586,-13.42969 0,-8.47265 -5.15039,-13.46484 -12.00586,-13.46484 -6.87305,0 -12.04102,4.99219 -12.04102,13.46484 0,8.4375 5.16797,13.42969 12.04102,13.42969 z m 0,-4.20117 c -4.28906,0 -7.33008,-3.26953 -7.33008,-9.22852 0,-5.99414 3.04102,-9.26367 7.33008,-9.26367 4.25391,0 7.27734,3.25196 7.27734,9.26367 0,5.97657 -3.02343,9.22852 -7.27734,9.22852 z m 31.07031,4.23633 c 6.38086,0 10.61719,-3.86719 10.61719,-9.47461 v -17.10352 h -4.69336 v 16.7168 c 0,3.28711 -2.30273,5.66016 -5.92383,5.66016 -3.62109,0 -5.92383,-2.37305 -5.92383,-5.66016 v -16.7168 h -4.69336 v 17.10352 c 0,5.60742 4.20118,9.47461 10.61719,9.47461 z M 800.70215,705 h 4.69336 v -8.85938 h 5.02734 c 6.04688,0 9.29883,-3.63867 9.29883,-8.66601 0,-4.99219 -3.19922,-8.66602 -9.22852,-8.66602 h -9.79101 z m 4.69336,-12.72656 v -9.52735 h 4.37695 c 3.58594,0 5.15039,1.9336 5.15039,4.72852 0,2.79492 -1.56445,4.79883 -5.11523,4.79883 z"
     id="text14"
     style="font-weight:600;font-size:36px;font-family:Inter;letter-spacing:4;text-anchor:middle;fill:#c9a646"
     aria-label="TOMAHAWK ADVISORY GROUP" />
</svg>
